<svg enable-background="new 0 0 512 512" viewBox="0 0 512 512" xmlns="http://www.w3.org/2000/svg"><path d="m437.02 74.98c-48.353-48.351-112.64-74.98-181.02-74.98s-132.667 26.629-181.02 74.98c-48.351 48.353-74.98 112.64-74.98 181.02s26.629 132.668 74.98 181.02c48.353 48.351 112.64 74.98 181.02 74.98s132.667-26.629 181.02-74.98c48.351-48.352 74.98-112.64 74.98-181.02s-26.629-132.667-74.98-181.02zm-181.02-34.98c79.007 0 148.23 42.647 185.893 106.122h-180.801c-1.688-.077-3.385-.122-5.092-.122-46.911 0-87.049 29.521-102.834 70.957l-59.909-102.822c39.627-45.4 97.89-74.135 162.743-74.135zm-65.047 241.812c-3.183-7.993-4.953-16.697-4.953-25.812 0-38.598 31.402-70 70-70 1.006 0 2.004.034 3 .076v.046h1.001c36.743 2.082 65.999 32.624 65.999 69.878 0 38.598-31.402 70-70 70-26.257 0-49.171-14.54-61.148-35.983l.658-.384zm26.801 186.797c-100.924-18.107-177.754-106.554-177.754-212.609 0-38.497 10.135-74.667 27.859-106.001l87.148 149.574c16.909 39.042 55.81 66.427 100.993 66.427 7.034 0 13.913-.672 20.584-1.94zm44.035 3.312 90.096-160.112-.847-.477c9.505-16.265 14.962-35.172 14.962-55.332 0-26.512-9.429-50.864-25.108-69.878h119.502c7.517 21.928 11.606 45.434 11.606 69.878 0 117.167-93.774 212.842-210.211 215.921z"/></svg>