<svg viewBox="0 0 512 512" xmlns="http://www.w3.org/2000/svg"><path d="m276 472v-90h6.2c4.9 0 9.7-.4 14.5-1.1l-39-38.9h-27.9c-30.1 0-55-22.8-58.4-52h34.3l-74.7-74.7v67.9c0 54.5 44.3 98.8 98.8 98.8h6.2v90h-104v40h250v-40zm89.1-135.2c10.3-15.9 15.9-34.5 15.9-53.7v-184.3c0-1.5 0-3.1-.1-4.6v-3.2h-.2c-4-50.8-46.7-91-98.5-91h-52.3c-51.9 0-94.5 40.2-98.5 91h-.2v3.2c-.1 1.5-.1 3.1-.1 4.6v3.9l-102.5-102.3-28.2 28.2 483 483 28.3-28.3zm-29.4-29.3-17.4-17.5h22.3c-.7 6.1-2.4 11.9-4.9 17.5zm5.3-136.5h-65v40h65v39h-62.7l-42.3-42.3v-36.7h-36.7l-28.3-28.3v-11.7h65v-40h-64.5c3.8-28.7 28.5-51 58.3-51h52.3c29.8 0 54.5 22.3 58.3 51h-64.4v40h65z"/></svg>