<svg viewBox="0 0 512 512" xmlns="http://www.w3.org/2000/svg"><path d="m437 75c-48.3-48.4-112.6-75-181-75s-132.7 26.6-181 75c-48.4 48.3-75 112.6-75 181s26.6 132.7 75 181c48.4 48.4 112.6 75 181 75s132.7-26.6 181-75c48.4-48.4 75-112.6 75-181s-26.6-132.7-75-181zm-181 397c-119.1 0-216-96.9-216-216s96.9-216 216-216 216 96.9 216 216-96.9 216-216 216zm0-179c-38.6 0-70 28.3-70 63s31.4 63 70 63 70-28.3 70-63-31.4-63-70-63zm0 86c-16.3 0-30-10.5-30-23s13.7-23 30-23 30 10.5 30 23-13.7 23-30 23zm-88-248.9c17.7 0 32 22.4 32 50s-14.3 50-32 50-32-22.4-32-50 14.3-50 32-50zm176 .1c17.7 0 32 22.4 32 50s-14.3 50-32 50-32-22.4-32-50 14.3-50 32-50z"/></svg>