<svg viewBox="0 0 512 512" xmlns="http://www.w3.org/2000/svg"><path d="m275.5 472v-90h6.2c54.5 0 98.8-44.3 98.8-98.8v-184.4c0-1.5 0-3.1-.1-4.6v-3.2h-.2c-4-50.8-46.7-91-98.5-91h-52.3c-51.9 0-94.5 40.2-98.5 91h-.2v3.2c-.1 1.5-.1 3.1-.1 4.6v184.3c0 54.5 44.3 98.8 98.8 98.8h6.2v90h-104v40h250v-40h-106.1zm-46.2-130c-30.1 0-55-22.8-58.4-52h64.6v-40h-65v-39h65v-40h-65v-40h65v-40h-64.5c3.8-28.7 28.5-51 58.3-51h52.3c29.8 0 54.5 22.3 58.3 51h-64.5v40h65v40h-65v40h65v39h-65v40h64.6c-3.4 29.2-28.3 52-58.4 52z"/></svg>