<svg viewBox="0 0 512 512" xmlns="http://www.w3.org/2000/svg"><path d="m314.5 157.2v103.9h31.5v2.3c0 9.9-4.8 19.2-12.9 24.9l-56.7 40.2v-218.6h44.6l-63.4-109.9-66.5 109.9h45.4v248.3l-56.7-40.2c-8.1-5.7-12.9-15-12.9-24.9v-8.5c20.2-7.8 34.6-27.4 34.6-50.3 0-29.8-24.2-54-54-54s-54 24.2-54 54c0 22.5 13.8 41.8 33.4 49.9v8.9c0 22.8 11.1 44.3 29.7 57.5l66.9 47.4c4.3 3 7.6 7 9.8 11.6-17.7 8.9-29.9 27.2-29.9 48.3 0 29.8 24.2 54 54 54s54-24.2 54-54c0-23.1-14.6-42.8-35-50.5v-14.2c0-9.9 4.8-19.2 12.9-24.9l66.9-47.4c18.6-13.2 29.7-34.7 29.7-57.5v-2.3h32.4v-103.9zm-166.9 91.1c-7.7 0-14-6.3-14-14s6.3-14 14-14 14 6.3 14 14-6.3 14-14 14zm109.9 223.7c-7.7 0-14-6.3-14-14s6.3-14 14-14 14 6.3 14 14-6.3 14-14 14zm120.9-250.8h-24v-24h24z"/></svg>