<svg viewBox="0 0 512 512" xmlns="http://www.w3.org/2000/svg"><path d="m304.9 222.2h-10v-222.2l-198.5 160.4h-32.9c-34.1 0-62.8 27.4-62.8 59.8v71.8c0 32.4 28.8 59.8 62.8 59.8h33.2l198.2 160.2v-222.1l9.9-.1c18.9 0 34.3-14.9 34.3-33.6s-15.3-34-34.2-34zm-220.4 89.8h-21c-11.8 0-22.9-9.7-22.9-19.9v-71.8c0-10.3 11.1-19.9 22.9-19.9h20.9v111.6zm170.5 116.5-130.6-105.6v-133.8l130.6-105.6zm79.8-269.1v39.9c31.3 0 56.8 25.5 56.8 56.8s-25.5 56.9-56.8 56.9v39.9c53.3 0 96.7-43.4 96.7-96.7s-43.4-96.8-96.7-96.8zm.2-77.8v39.9c75.2 0 136.4 60.6 136.4 135.1s-61.2 135.2-136.4 135.2v39.9c97.2 0 176.3-78.5 176.3-175s-79.1-175.1-176.3-175.1z"/></svg>