<svg viewBox="0 0 512 512" xmlns="http://www.w3.org/2000/svg"><path d="m437 75c-48.3-48.4-112.6-75-181-75s-132.7 26.6-181 75c-48.4 48.3-75 112.6-75 181s26.6 132.7 75 181c48.4 48.4 112.6 75 181 75s132.7-26.6 181-75c48.4-48.4 75-112.6 75-181s-26.6-132.7-75-181zm-181 397c-119.1 0-216-96.9-216-216s96.9-216 216-216 216 96.9 216 216-96.9 216-216 216zm113-186.2c-.1.2-7.3 21.6-25 42.4-22.6 26.4-51.3 39.8-85.6 39.8-34.5 0-64.2-13.6-88.3-40.3-18.9-21-27.3-42.5-27.3-42.7l-37.5 14c .4 1.1 10.5 27.8 34 54.3 31.7 35.8 72.9 54.7 119.1 54.7 46.4 0 86.9-19.1 117.1-55.2 22.3-26.7 31.2-53.5 31.5-54.7zm-201-137.7c17.7 0 32 14.3 32 32s-14.3 32-32 32-32-14.3-32-32 14.3-32 32-32zm176 0c17.7 0 32 14.3 32 32s-14.3 32-32 32-32-14.3-32-32 14.3-32 32-32z"/></svg>