<svg viewBox="0 0 512 512" xmlns="http://www.w3.org/2000/svg"><path d="m276 279.4v-279.4h-40v279.4c-23.3 8.3-40 30.5-40 56.6s16.7 48.3 40 56.6v119.4h40v-119.4c23.3-8.3 40-30.5 40-56.6s-16.7-48.3-40-56.6zm-20 76.6c-11 0-20-9-20-20s9-20 20-20 20 9 20 20-9 20-20 20zm-164-268.6v-87.4h-40v87.4c-23.3 8.3-40 30.5-40 56.6s16.7 48.3 40 56.6v311.4h40v-311.4c23.3-8.3 40-30.5 40-56.6s-16.7-48.3-40-56.6zm-20 76.6c-11 0-20-9-20-20s9-20 20-20 20 9 20 20-9 20-20 20zm388 3.4v-167.4h-40v167.4c-23.3 8.3-40 30.5-40 56.6s16.7 48.3 40 56.6v231.4h40v-231.4c23.3-8.3 40-30.5 40-56.6s-16.7-48.3-40-56.6zm-20 76.6c-11 0-20-9-20-20s9-20 20-20 20 9 20 20-9 20-20 20z"/></svg>