<svg viewBox="0 0 512 512" xmlns="http://www.w3.org/2000/svg"><path d="m437 75c-48.3-48.4-112.6-75-181-75s-132.7 26.6-181 75c-48.4 48.3-75 112.6-75 181s26.6 132.7 75 181c48.4 48.4 112.6 75 181 75s132.7-26.6 181-75c48.4-48.4 75-112.6 75-181s-26.6-132.7-75-181zm-181 397c-119.1 0-216-96.9-216-216s96.9-216 216-216 216 96.9 216 216-96.9 216-216 216zm-159.9-180 9 26.4c.4 1.1 9.5 27.5 32.4 53.7 30.7 35.3 71.7 53.9 118.5 53.9s87.8-18.6 118.6-53.9c22.8-26.2 32-52.6 32.4-53.7l9-26.4zm247.4 54.9c-23.1 25.9-52.5 39.1-87.5 39.1s-64.4-13.2-87.5-39.1c-4.5-5-8.3-10.1-11.5-14.9h198c-3.2 4.8-7 9.8-11.5 14.9zm-165.4-216.1-28.3 28.3 20.2 20.2-51 13.3 10.1 38.7 118.9-30.9zm163.8 48.6 20.2-20.2-28.3-28.3-69.8 69.6 119 30.9 10.1-38.7z"/></svg>