<svg viewBox="0 0 512 512" xmlns="http://www.w3.org/2000/svg"><path d="m375.7 356.7c-1.8-2.3-44.7-55.6-119.7-55.6s-117.9 53.4-119.7 55.6l31.4 24.8c.3-.4 32.5-40.4 88.3-40.4 55.1 0 87 38.8 88.4 40.5l-.1-.1zm61.3-281.7c-48.3-48.4-112.6-75-181-75s-132.7 26.6-181 75c-48.4 48.3-75 112.6-75 181s26.6 132.7 75 181c48.4 48.4 112.6 75 181 75s132.7-26.6 181-75c48.4-48.4 75-112.6 75-181s-26.6-132.7-75-181zm-181 397c-119.1 0-216-96.9-216-216s96.9-216 216-216 216 96.9 216 216-96.9 216-216 216zm-88-323.9c17.7 0 32 14.3 32 32s-14.3 32-32 32-32-14.3-32-32 14.3-32 32-32zm176 0c17.7 0 32 14.3 32 32s-14.3 32-32 32-32-14.3-32-32 14.3-32 32-32z"/></svg>