<svg viewBox="0 0 512 512" xmlns="http://www.w3.org/2000/svg"><path d="m494.4 105.6c-11.3-11.4-26.4-17.6-42.4-17.6h-193.7c-5.4 0-10.4-2.6-13.3-7l-30.7-46h-154.3c-33.1 0-60 26.9-60 60v322c0 33.1 26.9 60 60 60h392c33.1 0 60-26.9 60-60v-269c0-16-6.2-31.1-17.6-42.4zm-454.4-10.6c0-11 9-20 20-20h132.9l18.8 28.3c1.1 1.7 2.4 3.4 3.7 4.9-1.3 1.5-2.5 3.1-3.6 4.8l-19.3 28h-132.5c-6.9 0-13.7 1.2-20 3.4zm432 322c0 11-9 20-20 20h-392c-11 0-20-9-20-20v-212-4c0-5.3 2.1-10.4 5.9-14.1 3.8-3.8 8.8-5.9 14.1-5.9h153.5l31.3-45.5.2-.2c2.8-4.3 8.2-7.2 13-7.2h.3 193.7c5.3 0 10.4 2.1 14.1 5.9 3.8 3.8 5.9 8.8 5.9 14.1z"/></svg>