<svg viewBox="0 0 512 512" xmlns="http://www.w3.org/2000/svg"><path d="m512 289.7v-67.5l-68.2-18.1c-4.3-15.4-10.4-30.2-18.4-44.2l34.9-60.6-47.6-47.6-60.6 34.9c-14-8-28.8-14.1-44.2-18.4l-18.2-68.2h-67.5l-18.1 68.2c-15.4 4.3-30.2 10.4-44.2 18.4l-60.5-34.9-47.7 47.7 34.9 60.6c-8 14-14.1 28.8-18.4 44.2l-68.2 18.1v67.5l68.2 18.1c4.3 15.4 10.4 30.2 18.4 44.2l-34.9 60.6 47.6 47.6 60.6-34.9c14 8 28.8 14.1 44.2 18.4l18.1 68.2h67.5l18.1-68.2c15.4-4.3 30.2-10.4 44.2-18.4l60.6 34.9 47.6-47.6-34.9-60.6c8-14 14.1-28.8 18.4-44.2zm-101.9-14.2-2.5 12.1c-3.9 18.9-11.4 36.8-22.1 53.2l-6.8 10.3 31.6 55-4.3 4.3-55-31.6-10.3 6.8c-16.4 10.8-34.3 18.2-53.2 22.1l-12.1 2.5-16.4 61.8h-6l-16.5-61.9-12.1-2.5c-18.9-3.9-36.8-11.4-53.2-22.1l-10.3-6.8-55 31.6-4.3-4.3 31.6-55-6.8-10.3c-10.8-16.4-18.2-34.3-22.1-53.2l-2.5-12.1-61.8-16.4v-6l61.9-16.5 2.5-12.1c3.9-18.9 11.4-36.8 22.1-53.2l6.8-10.3-31.6-55 4.3-4.3 55 31.6 10.3-6.8c16.4-10.8 34.3-18.2 53.2-22.1l12.1-2.5 16.4-61.8h6l16.5 61.9 12.1 2.5c18.9 3.9 36.8 11.4 53.2 22.1l10.3 6.8 55-31.6 4.3 4.3-31.6 55 6.8 10.3c10.8 16.4 18.2 34.3 22.1 53.2l2.5 12.1 61.8 16.4v6zm-154.1-135.5c-64 0-116 52-116 116s52 116 116 116 116-52 116-116-52-116-116-116zm0 192c-41.9 0-76-34.1-76-76s34.1-76 76-76 76 34.1 76 76-34.1 76-76 76z"/></svg>