<svg viewBox="0 0 512 512" xmlns="http://www.w3.org/2000/svg"><path d="m477.2 120.8-7.2-18.7-37.3 14.4 7.2 18.6c8 20.8 12.1 42.5 12.1 64.8v92h40v-92c0-27.1-5-53.7-14.8-79.1zm-435.2-18.7-7.2 18.7c-9.8 25.4-14.8 52-14.8 79.2v92h40v-92c0-22.2 4.1-44 12.1-64.8l7.2-18.6zm426 289.9h-20c-10.4 0-18.7-3.6-24.7-10.7-7.4-8.7-11.3-22.4-11.3-39.6v-137.7c0-78.8-59.5-144.8-136-154.7v-49.3h-40v49.3c-76.5 9.9-136 75.9-136 154.7v144c0 14.2-3.7 25.8-10.8 33.5-6.2 6.9-14.9 10.5-25.2 10.5h-20v56h161.4c-.9 3.9-1.4 7.9-1.4 12 0 28.7 23.3 52 52 52s52-23.3 52-52c0-4.1-.5-8.1-1.4-12h161.4zm-212 80c-6.6 0-12-5.4-12-12s5.4-12 12-12 12 5.4 12 12-5.4 12-12 12zm-136.8-64c13.6-15.2 20.8-35.9 20.8-60v-144c0-63.1 51.3-115.1 114.3-116h3.4c63 .9 114.3 52.9 114.3 116v137.6c0 26.8 7.2 49.5 20.7 65.5.2.3.5.6.7.9z"/></svg>