<svg viewBox="0 0 512 512" xmlns="http://www.w3.org/2000/svg"><path d="m491.4 138.9c-13-26.6-32.1-49.2-56.8-67-43.8-31.7-105.6-48.4-178.6-48.4s-134.8 16.7-178.6 48.4c-24.7 17.8-43.8 40.4-56.8 67-13.7 27.9-20.6 60.4-20.6 96.6 0 78.3 32.3 138.2 93.6 174.2-8.5 29.9-19.5 48.1-19.6 48.2l-19 30.5 36 .1h.1.3c11.3 0 63.4-2.4 105.7-44.9 18.7 2.6 38.4 3.9 58.8 3.9 73 0 134.8-16.7 178.6-48.4 24.7-17.8 43.8-40.4 56.8-67 13.7-27.9 20.6-60.4 20.6-96.6s-6.8-68.7-20.5-96.6zm-80.2 227.8c-36.9 26.7-90.6 40.8-155.2 40.8-22.2 0-43.4-1.7-62.9-5l-11.1-1.9-7.4 8.6c-15.8 18.4-34.1 28.2-49.6 33.4 4-10.9 8.1-23.9 11.4-38.8l3.4-15.3-14.1-6.9c-56.9-28.1-85.7-77.2-85.7-146.1 0-57.9 20.5-102.1 60.8-131.2 36.9-26.7 90.6-40.8 155.2-40.8s118.2 14.1 155.2 40.8c40.4 29.2 60.8 73.3 60.8 131.2s-20.5 102-60.8 131.2z"/></svg>