<svg viewBox="0 0 512 512" xmlns="http://www.w3.org/2000/svg"><path d="m351 228.8c34.7-39.2 53-86.5 53-136.8v-52h64v-40h-424v40h64v52c0 50.2 18.3 97.5 53 136.8 9.9 11.2 19.8 20.3 28.4 27.2-8.6 7-18.5 16-28.4 27.2-34.7 39.2-53 86.5-53 136.8v52h-64v40h424v-40h-64v-52c0-50.2-18.3-97.5-53-136.8-9.9-11.2-19.8-20.3-28.4-27.2 8.6-7 18.5-16 28.4-27.2zm-203-188.8h216v40h-216zm216 432h-216v-40h216zm-85.8-198.5c.2.1 22.2 12.6 43.7 37.3 21.3 24.5 34.6 51.7 39.7 81.3h-211.2c5.1-29.5 18.4-56.8 39.7-81.3 21.5-24.6 43.4-37.1 43.6-37.2 6.4-3.5 10.3-10.2 10.3-17.5s-3.9-14-10.3-17.5c-.2-.1-22.2-12.6-43.7-37.3-21.3-24.5-34.6-51.7-39.7-81.3h211.3c-5.1 29.5-18.4 56.8-39.7 81.3-21.5 24.6-43.4 37.1-43.6 37.2-6.4 3.5-10.3 10.2-10.3 17.5s3.9 13.9 10.2 17.5z"/></svg>